<svg width="200" height="200" viewBox="0 0 200 200" xmlns="http://www.w3.org/2000/svg" style="fill: rgb(255, 255, 255); width: 24px; height: 24px; padding: 4px; filter: drop-shadow(rgba(0, 0, 0, 0.25) 0px 0.5px 1px);"><path d="M149.167 90.8334C122.5 75.0001 77.9167 73.3334 52.5 81.2501C48.3333 82.5001 44.1667 80.0001 42.9167 76.2501C41.6667 72.0834 44.1667 67.9168 47.9167 66.6668C77.5 57.9168 126.25 59.5834 157.083 77.9168C160.833 80.0001 162.083 85.0001 160 88.7501C157.917 91.6667 152.917 92.9167 149.167 90.8334ZM148.333 114.167C146.25 117.083 142.5 118.333 139.583 116.25C117.083 102.5 82.9167 98.3334 56.6667 106.667C53.3333 107.5 49.5833 105.833 48.75 102.5C47.9167 99.1668 49.5833 95.4168 52.9167 94.5834C83.3333 85.4168 120.833 90.0001 146.667 105.833C149.167 107.083 150.417 111.25 148.333 114.167ZM138.333 137.083C136.667 139.583 133.75 140.417 131.25 138.75C111.667 126.667 87.0833 124.167 57.9167 130.833C55 131.667 52.5 129.583 51.6667 127.083C50.8333 124.167 52.9167 121.667 55.4167 120.833C87.0833 113.75 114.583 116.667 136.25 130C139.167 131.25 139.583 134.583 138.333 137.083ZM100 16.6667C89.0565 16.6667 78.2202 18.8222 68.1097 23.0101C57.9992 27.198 48.8126 33.3363 41.0744 41.0745C25.4464 56.7026 16.6667 77.8987 16.6667 100C16.6667 122.101 25.4464 143.298 41.0744 158.926C48.8126 166.664 57.9992 172.802 68.1097 176.99C78.2202 181.178 89.0565 183.333 100 183.333C122.101 183.333 143.298 174.554 158.926 158.926C174.554 143.298 183.333 122.101 183.333 100C183.333 89.0566 181.178 78.2203 176.99 68.1098C172.802 57.9993 166.664 48.8127 158.926 41.0745C151.187 33.3363 142.001 27.198 131.89 23.0101C121.78 18.8222 110.943 16.6667 100 16.6667Z"></path></svg>